<svg id="Capa_1" enable-background="new 0 0 512 512" height="512" viewBox="0 0 512 512" width="512" xmlns="http://www.w3.org/2000/svg"><g><path d="m424.23 194.7v30.91h6.9v26.78h-6.9v30.91h6.9v26.78h-6.9v30.91h6.9v26.78h-6.9v30.91h6.9v92.28h-77.263v-329.22h57.81c17.663 0 19.453 1.79 19.453 4v28.96z" fill="#dd7f66"/><path d="m424.23 194.7v30.91h6.9v26.78h-6.9v30.91h6.9v26.78h-6.9v30.91h6.9v26.78h-6.9v30.91h6.9v92.28h-30.9v-329.22h26.9c2.21 0 4 1.79 4 4v28.96z" fill="#d6694b"/><path d="m431.131 225.61h-28.845c-1.138 0-2.06-.922-2.06-2.06v-26.785c0-1.138.922-2.06 2.06-2.06h28.845z" fill="#dcf5f8"/><path d="m431.131 283.3h-28.845c-1.138 0-2.06-.922-2.06-2.06v-26.785c0-1.138.922-2.06 2.06-2.06h28.845z" fill="#dcf5f8"/><path d="m431.131 340.99h-28.845c-1.138 0-2.06-.922-2.06-2.06v-26.785c0-1.138.922-2.06 2.06-2.06h28.845z" fill="#dcf5f8"/><path d="m431.131 398.68h-28.845c-1.138 0-2.06-.922-2.06-2.06v-26.785c0-1.138.922-2.06 2.06-2.06h28.845z" fill="#dcf5f8"/><path d="m151.769 161.74v329.22h-70.899v-92.28h6.08v-30.91h-6.08v-26.78h6.08v-30.91h-6.08v-26.78h6.08v-30.91h-6.08v-26.78h6.08v-30.91h-6.08v-28.96c0-2.21 1.79-4 4-4z" fill="#dd7f66"/><path d="m111.775 161.738h39.995v329.22h-39.995z" fill="#d6694b"/><path d="m109.714 225.61h-28.845v-30.905h28.845c1.138 0 2.06.922 2.06 2.06v26.785c.001 1.137-.922 2.06-2.06 2.06z" fill="#dcf5f8"/><path d="m109.714 283.3h-28.845v-30.905h28.845c1.138 0 2.06.922 2.06 2.06v26.785c.001 1.137-.922 2.06-2.06 2.06z" fill="#dcf5f8"/><path d="m109.714 340.99h-28.845v-30.905h28.845c1.138 0 2.06.922 2.06 2.06v26.785c.001 1.137-.922 2.06-2.06 2.06z" fill="#dcf5f8"/><path d="m109.714 398.68h-28.845v-30.905h28.845c1.138 0 2.06.922 2.06 2.06v26.785c.001 1.138-.922 2.06-2.06 2.06z" fill="#dcf5f8"/><path d="m182.648 0c-4.142 0-7.5 3.357-7.5 7.5v56.366c0 4.143 3.358 7.5 7.5 7.5s7.5-3.357 7.5-7.5v-56.366c0-4.143-3.357-7.5-7.5-7.5z" fill="#7a6d79"/><path d="m198.389 97.843h-30.905v-23.67c0-8.534 6.918-15.453 15.453-15.453 8.534 0 15.453 6.918 15.453 15.453v23.67z" fill="#685e68"/><path d="m369.32 490.958h-226.64v-397.332c0-2.209 1.791-4 4-4h218.64c2.209 0 4 1.791 4 4z" fill="#a8d3d8"/><path d="m338.414 89.626v401.332h30.905v-397.332c0-2.209-1.791-4-4-4z" fill="#8ebac5"/><g fill="#dcf5f8"><path d="m336.354 167.92h-160.708c-1.138 0-2.06-.922-2.06-2.06v-26.785c0-1.138.922-2.06 2.06-2.06h160.708c1.138 0 2.06.922 2.06 2.06v26.785c0 1.137-.922 2.06-2.06 2.06z"/><path d="m336.354 225.61h-160.708c-1.138 0-2.06-.922-2.06-2.06v-26.785c0-1.138.922-2.06 2.06-2.06h160.708c1.138 0 2.06.922 2.06 2.06v26.785c0 1.137-.922 2.06-2.06 2.06z"/><path d="m336.354 283.3h-160.708c-1.138 0-2.06-.922-2.06-2.06v-26.785c0-1.138.922-2.06 2.06-2.06h160.708c1.138 0 2.06.922 2.06 2.06v26.785c0 1.137-.922 2.06-2.06 2.06z"/><path d="m336.354 340.99h-160.708c-1.138 0-2.06-.922-2.06-2.06v-26.785c0-1.138.922-2.06 2.06-2.06h160.708c1.138 0 2.06.922 2.06 2.06v26.785c0 1.137-.922 2.06-2.06 2.06z"/><path d="m336.858 398.68h-160.709c-1.138 0-2.06-.922-2.06-2.06v-26.785c0-1.138.922-2.06 2.06-2.06h160.708c1.138 0 2.06.922 2.06 2.06v26.785c.001 1.138-.922 2.06-2.059 2.06z"/></g><path d="m315.75 490.958h-119.501v-51.191c0-2.209 1.791-4 4-4h111.501c2.209 0 4 1.791 4 4z" fill="#685e68"/><path d="m487.276 512h-462.552c-13.655 0-24.724-11.069-24.724-24.724 0-3.414 2.767-6.181 6.181-6.181h499.638c3.414 0 6.181 2.767 6.181 6.181 0 13.655-11.069 24.724-24.724 24.724z" fill="#cbc4cc"/><path d="m505.819 481.095h-30.905c3.414 0 6.181 2.767 6.181 6.181 0 13.655-11.069 24.724-24.724 24.724h30.905c13.655 0 24.724-11.069 24.724-24.724 0-3.414-2.767-6.181-6.181-6.181z" fill="#b5adb6"/></g></svg>