<svg id="Capa_1" enable-background="new 0 0 512 512" height="512" viewBox="0 0 512 512" width="512" xmlns="http://www.w3.org/2000/svg"><g><path d="m451.734 92.916h-113.32v-36.892c0-2.209 1.791-4 4-4h105.32c2.209 0 4 1.791 4 4z" fill="#918291"/><path d="m420.829 52.024v40.892h30.905v-36.892c0-2.209-1.791-4-4-4z" fill="#7a6d79"/><path d="m181.827 92.916h-129.803v-36.892c0-2.209 1.791-4 4-4h121.803c2.209 0 4 1.791 4 4z" fill="#918291"/><path d="m150.922 52.024v40.892h30.905v-36.892c0-2.209-1.791-4-4-4z" fill="#7a6d79"/><path d="m471.31 86.93v260.94h-152.47v-79.51h9.82v-30.9h-9.82v-30.91h9.82v-30.9h-9.82v-30.91h9.82v-30.9h-9.82v-26.91c0-2.21 1.79-4 4-4h144.47c2.21 0 4 1.79 4 4z" fill="#a8d3d8"/><path d="m440.402 82.93v264.938h30.905v-260.938c0-2.209-1.791-4-4-4z" fill="#8ebac5"/><path d="m194.189 347.867h-154.527v-260.937c0-2.209 1.791-4 4-4h146.527c2.209 0 4 1.791 4 4z" fill="#75cdd5"/><path d="m163.284 82.93v264.938h30.905v-260.938c0-2.209-1.791-4-4-4z" fill="#2abcc8"/><g fill="#dcf5f8"><g><path d="m99.412 144.74h-26.784c-1.138 0-2.06-.922-2.06-2.06v-26.785c0-1.138.922-2.06 2.06-2.06h26.785c1.138 0 2.06.922 2.06 2.06v26.785c0 1.138-.923 2.06-2.061 2.06z"/><path d="m161.223 144.74h-26.785c-1.138 0-2.06-.922-2.06-2.06v-26.785c0-1.138.922-2.06 2.06-2.06h26.785c1.138 0 2.06.922 2.06 2.06v26.785c.001 1.138-.922 2.06-2.06 2.06z"/></g><g><path d="m99.412 206.551h-26.784c-1.138 0-2.06-.922-2.06-2.06v-26.785c0-1.138.922-2.06 2.06-2.06h26.785c1.138 0 2.06.922 2.06 2.06v26.785c0 1.138-.923 2.06-2.061 2.06z"/><path d="m161.223 206.551h-26.785c-1.138 0-2.06-.922-2.06-2.06v-26.785c0-1.138.922-2.06 2.06-2.06h26.785c1.138 0 2.06.922 2.06 2.06v26.785c.001 1.138-.922 2.06-2.06 2.06z"/></g><g><path d="m99.412 268.362h-26.784c-1.138 0-2.06-.922-2.06-2.06v-26.785c0-1.138.922-2.06 2.06-2.06h26.785c1.138 0 2.06.922 2.06 2.06v26.785c0 1.138-.923 2.06-2.061 2.06z"/><path d="m161.223 268.362h-26.785c-1.138 0-2.06-.922-2.06-2.06v-26.785c0-1.138.922-2.06 2.06-2.06h26.785c1.138 0 2.06.922 2.06 2.06v26.785c.001 1.138-.922 2.06-2.06 2.06z"/></g><path d="m425.98 144.74h-107.139v-30.905h107.139c1.138 0 2.06.922 2.06 2.06v26.785c0 1.138-.922 2.06-2.06 2.06z"/><path d="m425.98 206.551h-107.139v-30.905h107.139c1.138 0 2.06.922 2.06 2.06v26.785c0 1.138-.922 2.06-2.06 2.06z"/><path d="m425.98 268.362h-107.139v-30.905h107.139c1.138 0 2.06.922 2.06 2.06v26.785c0 1.138-.922 2.06-2.06 2.06z"/></g><path d="m163.284 347.867h-92.717v-50.66c0-1.138.922-2.06 2.06-2.06h88.596c1.138 0 2.06.922 2.06 2.06v50.66z" fill="#554e56"/><path d="m409.497 347.867h-90.656v-52.72h88.302c1.442 0 2.354.912 2.354 2.037z" fill="#554e56"/><path d="m504.5 421.57h-101.926v-56.371c0-4.142-3.358-7.5-7.5-7.5s-7.5 3.358-7.5 7.5v56.371h-263.148v-56.371c0-4.142-3.358-7.5-7.5-7.5s-7.5 3.358-7.5 7.5v56.371h-101.926c-4.142 0-7.5 3.358-7.5 7.5s3.358 7.5 7.5 7.5h497c4.142 0 7.5-3.358 7.5-7.5s-3.358-7.5-7.5-7.5z" fill="#554e56"/><circle cx="256" cy="429.07" fill="#e94444" r="30.905"/><path d="m256 398.165c-5.631 0-10.906 1.514-15.453 4.145 9.235 5.344 15.453 15.323 15.453 26.76s-6.218 21.416-15.453 26.761c4.547 2.631 9.821 4.145 15.453 4.145 17.069 0 30.905-13.837 30.905-30.905 0-17.069-13.836-30.906-30.905-30.906z" fill="#d83131"/><path d="m487.276 365.199h-462.552c-13.655 0-24.724-11.069-24.724-24.724 0-3.414 2.767-6.181 6.181-6.181h499.638c3.414 0 6.181 2.767 6.181 6.181 0 13.655-11.069 24.724-24.724 24.724z" fill="#cbc4cc"/><path d="m505.819 334.294h-30.905c3.414 0 6.181 2.767 6.181 6.181 0 13.655-11.069 24.724-24.724 24.724h30.905c13.655 0 24.724-11.069 24.724-24.724 0-3.414-2.767-6.181-6.181-6.181z" fill="#b5adb6"/></g></svg>