<?xml version="1.0" ?><svg viewBox="0 0 64 64" xmlns="http://www.w3.org/2000/svg"><defs><style>.cls-1{fill:#c7e2fc;}.cls-2{fill:#ddeefd;}.cls-3{fill:#a1cdfb;}</style></defs><title/><g data-name="Layer 4" id="Layer_4"><ellipse class="cls-1" cx="39.06" cy="26.99" rx="17.26" ry="21.25"/><path class="cls-2" d="M50.23,19.7A28.35,28.35,0,0,0,48.16,9a14.89,14.89,0,0,0-9.1-3.22c-9.54,0-17.27,9.51-17.27,21.25a23.53,23.53,0,0,0,5.86,15.92,15.44,15.44,0,0,0,3.61.43C41.74,43.34,50.23,32.76,50.23,19.7Z"/><polygon class="cls-3" points="43.71 28.71 42.29 27.29 40 29.59 40 26 38 26 38 35.59 35.71 33.29 34.29 34.71 38 38.41 38 55 40 55 40 32.41 43.71 28.71"/><polygon class="cls-3" points="2 50 12 2 22 50 2 50"/><polygon class="cls-3" points="44 52 53 28 62 52 44 52"/><polygon class="cls-1" points="15.71 34.71 14.29 33.29 13 34.59 13 30 11 30 11 40.59 8.71 38.29 7.29 39.71 11 43.41 11 62 13 62 13 37.41 15.71 34.71"/><polygon class="cls-1" points="56.71 43.71 55.29 42.29 54 43.59 54 39 52 39 52 62 54 62 54 46.41 56.71 43.71"/><path class="cls-1" d="M32,62a4,4,0,0,0-3-3.86s0-.09,0-.14a4,4,0,0,0-8,0s0,.09,0,.14A4,4,0,0,0,18,62Z"/><path class="cls-1" d="M45,62a4,4,0,0,0-3-3.86s0-.09,0-.14a4,4,0,0,0-8,0s0,.09,0,.14A4,4,0,0,0,31,62Z"/><rect class="cls-3" height="2" width="62" x="1" y="61"/></g></svg>