<?xml version="1.0" encoding="utf-8"?>
<!-- Generator: Adobe Illustrator 21.0.2, SVG Export Plug-In . SVG Version: 6.00 Build 0)  -->
<svg version="1.1" id="layer_2" xmlns="http://www.w3.org/2000/svg" xmlns:xlink="http://www.w3.org/1999/xlink" x="0px" y="0px"
	 viewBox="0 0 11517.4 900" style="enable-background:new 0 0 11517.4 900;" xml:space="preserve">
<title>Panorama</title>
<path style="opacity:0.1;fill:#3FAF74;enable-background:new    ;" d="M3160.1,539.4c-50.7-29.4-232.3-143.5-323.9-193.9
	c-15.9-8.8-28.4-2.4-35.4,2.5c-19.7,13.9-45-10.6-59.9-1.3c-26.5,16.6-36.4,14.1-63.9-0.6c-21.4-11.5-65.5-7.8-86.5-19.9
	c-36-20.8-50.3-49.1-88.2-33.9c-2.3,0.9-4.8,1.5-7.3,1.7c-44.9,3.2-54,5.4-105.2-11.6c-36-19-53.5,8.9-101,25.9
	C2218,333.6,2079.2,391.9,2008,416c-50.7,17.2-84.4-11.8-135.1-4.9c-12.2,1.6-40.6,38.4-52.9,40.3
	c-72.3-24.9-207.4-81.4-276.8-106.3c-47.5-17-59.9-21.3-95.9-2.3c-63.4,12.9-70.7,14.9-109.1,11.3c-40.4-18.3-59.6-12.4-96.7,8.9
	c-21,12.1-74.8,45-96.2,56.5c-27.5,14.8-37.4,17.2-63.9,0.6c-14.9-9.3-30.5-21.4-50.2-35.3c-7-4.9-19.5-11.3-35.4-2.5
	c-91.6,50.5-299.4,164.5-350,193.9L433.2,719L154.8,592.9c-53.4-26.3-108.9-49.1-164.9-69.1c-40.1-14.3-81-27.4-122.8-36v611.8
	h4243.8L3160.1,539.4z"/>
<path style="opacity:0.1;fill:#3FAF74;enable-background:new    ;" d="M2112.5,478.8c-110.2,0-550.7-99.1-706.3-99.1
	c-121.5,0-396.8,46.1-536.5,46.1c-302,0-873.8,167.5-873.8,167.5l-128.8,43.4v462.9h3669L2476.5,593.3
	C2476.5,593.3,2245.6,478.8,2112.5,478.8z"/>
<path style="opacity:0.1;fill:#3FAF74;enable-background:new    ;" d="M11596,1099.6V413.1c-45.4-26-88.6-50.5-119.7-67.7
	c-15.9-8.8-28.4-2.4-35.4,2.5c-19.7,13.9-35.3,26-50.2,35.3c-26.5,16.6-36.4,14.1-63.9-0.6c-21.4-11.5-75.2-44.4-96.2-56.5
	c-37.1-21.4-49.7-24.2-90-5.9c-42.1,19.1-50.1,19.8-109.1-11.3c-36-19-55-17.7-102.5-0.7c-70.8,25.3-209.6,83.6-280.8,107.7
	c-50.7,17.2-100.5,23.3-151.2,30.1c-12.2,1.6-24.5,3.3-36.9,5.2c-72.3-24.9-207.4-81.5-276.8-106.3c-47.5-17-66.5-18.2-102.5,0.7
	c-59,31.1-67,30.5-109.1,11.3c-40.4-18.3-53-15.5-90.1,5.9c-21,12.1-74.8,45-96.2,56.5c-27.5,14.8-37.4,17.2-63.9,0.6
	c-14.9-9.3-30.5-21.4-50.2-35.3c-7-4.9-19.4-11.3-35.4-2.5c-91.6,50.5-287.5,164.5-338.2,193.9c-5,2.9-928.6,523.4-928.6,523.4
	H11596V1099.6z"/>
<path style="opacity:0.1;fill:#3FAF74;enable-background:new    ;" d="M9300.8,234.5c-27.5,14.8-37.4,17.2-63.9,0.6
	c-14.9-9.3-32.4-30.6-50.2-35.3s-49.2,76.1-80.7,54.8c-10.9-9.3-18.4-15.6-21.2-17.8c-12.5-10-21.5-10.1-33,0
	c-9.4,8.3-26-1.2-37.2,6.7c-13.7,9.6-21.3,10.3-40.7-6.4c-6-5.1-17.2,1.9-27.5-8.1c-14.4-14-27.6-15.6-53.6-0.5
	c-19.9,11.6-29,14-52.4,0c-14.2-8.5-28.7,20.3-42.7,11.7c-23.4-14.3-22.9-17.8-39.4-8.8c-7.9,4.3-12,6.2-18.1,7.7
	c-12.1,3-19.7-3.8-30-10.4c-8.5-3.8-11.6-2-19.6,3.1s-12.3,5.5-19.6,0.8s-20.3-14.4-27.3-19.3c-12.1-8.3-19.8-9.2-35.2-1.5
	c-12.7,6.3-62.1,34.9-80,45.9c-12.9,8-16.9,8.6-28.9,2.2c-21.7-11.6-28.4-39.4-46.1-25.6c-17.7,13.8-76.4,60.7-76.4,60.7
	l294.3,210.7L8989,714.6l-2929-0.8l247.9-173.5l147.3-93.1c0,0-91.6-30.7-138.9-39.1c-20.7-3.7-41.1-6.5-61.3-9.3
	c-50.7-6.8-101.7-62.4-152.4-79.5c-71.2-24.1-215.2-67.6-285.9-92.9c-47.5-17-66.5-18.2-102.5,0.7c-59,31.1-67,30.4-109.1,11.3
	c-40.4-18.3-53-15.5-90.1,5.9c-21,12.1-74.8,45-96.2,56.5c-27.5,14.8-37.4,17.2-63.9,0.6c-14.9-9.3-30.5-21.4-50.2-35.3
	c-7-4.9-19.4-11.3-35.4-2.5c-31.4,17.3-297.1,72.1-343,98.4c-10.9-9.3-18.4-15.6-21.2-17.8c-12.5-10-21.5-10.1-33,0
	c-9.4,8.3-26-1.2-37.2,6.7c-13.7,9.6-21.3,10.3-40.7-6.4c-6-5.1-17.2,1.9-27.5-8.1c-14.4-14-27.6-15.6-53.6-0.5
	c-19.9,11.6-29,14-52.4,0c-14.2-8.5-28.8-16.2-42.8-24.8c-23.4-14.3-22.9-17.8-39.4-8.8c-7.9,4.3-12,6.2-18.1,7.7
	c-12.1,3-19.7-3.8-30-10.4c-8.5-3.8-11.6-2-19.6,3.1s-12.3,5.5-19.6,0.8s-20.3-14.4-27.3-19.3c-12.1-8.3-19.8-9.2-35.2-1.5
	c-12.7,6.3-62.1,34.9-80,45.9c-12.9,8-16.9,8.6-28.9,2.2c-21.7-11.6-26.6-13.4-46.1-25.6c-10.4-6.5-22.1-6.8-30.9-6.8
	c-17.1,0-24.5,2.1-32.7-6c-4.2-4.2-7.1-8.1-10.8-8.1c-19,0-28.3,1.8-32.7-1.2c-19.6-12.9-25.7-12.2-33.1-6.1
	c-18.5,15.1-21.4,14.7-31.8,9.7c-12.5-5.9-81.9-37-109.9-50.6c-18.1-8.8-23.4-7.9-44.6,6.2c-12.5,8.2-15.9,7.4-27.8-1.3
	c-7.9-5.8-24.6-20-28.5-22.6c-12-8-17.2-7.3-26.6,0c-11.9,9.3-23.2,20.8-34.3,31.1c-9.4,8.7-16.5,8.6-30.3,0.9
	c-11.7-6.5-14.9-9.5-30.5-18.4c-6.8-3.9-13.9-3.9-21.5,0.9c-23.4,14.6-44.9,27.5-72,45.2c-15.7,10.3-11.5,11.4-25.5,0.3
	c-16-12.7-47.5-8-61.5-11c-15.6-3.3-31-6.1-48.5-20.5c-17.7-14.5-19.8-14.1-36.8-2.8C3469.5,266.8,3161,432,2903,516
	s-622,583.7-622,583.7h9808l-0.1-300l-478-206.4c0,0-232.7-114.5-365.8-114.5c-110.2,0-550.7-99.1-706.3-99.1
	c-121.5,0-396.8,46.1-536.5,46.1c-89.7,0-203.1,14.8-318.2,35.5l-50.6-12.7c-71.2-24.1-235.5-165.9-306.2-191.2L9300.8,234.5z"/>
<path style="opacity:0.7;fill:#CCEAD4;enable-background:new    ;" d="M6502.4,421.6c225.2-114,269.9-147.9,388.2-205.3
	c26-13.6,27.8-33.5,70-33.5c10.4-9.2,66-4,71.9-3.7s11.5-2.8,17.8-2.8c7.7-2.3,33.1,10.3,37.6,7.3s4.5-6.4,15.5-4.5
	c17.7,4.5,23.1,6.2,40.1,10.3c5.5,1.3,7.4,8.3,12.6,6.1c10.2-4.1,20-9.2,29.3-15.1c19.9-12.2,19.5-15.1,33.5-7.5
	c6.7,3.7,10.3,5.3,15.4,6.5c10.3,2.6,16.8-3.3,25.5-8.9c44.6-13.9,208.7,11.8,225.4,1.3c8.9-5.5,11.9-5.5,19.3-5.5
	c9.4,0,22.8,2.2,27.8-2c3.9-3.2,6.2-6,9.2-6.9c4.4-1.3,24,1.4,27.8-1c15-9.3,18.6-12.5,25.2-7.6c4,2.9,112.7,0.1,157.5-32.3
	c8.5-6.1,71.2,0.9,80.1,6.8c33.4,22,95.4,11.9,136.6,8.4c8.1-0.2,21.2,6,34.7,4c35.2-5.3,83.3-21,130.4-12.4
	c38.7,25.8,453.4,320.7,537.6,382.4l760.8,500.5H5668.6C5668.6,1006.1,6279,534.7,6502.4,421.6z"/>
<g>
	<path style="opacity:0.18;fill:#C9D6DA;enable-background:new    ;" d="M8327.7,334.9c-4.2,0.1,22.5-13.1-10.5-13.1
		c-13.2,0-9.2-8.1-24.3-8.1c-11.8,0-13.6-13.6-25.5-13.6c-33.9,0-20.6-6.6-10.9-6.6c12,0,38.6-11.7,7.5-11.7
		c-19.8,0-15.3-14.6-24.1-14.6H8210c-18.1,0,5.2-7.6-7-7.6s-29.9,0.3-42.1,0.6c-2.7,0.1-9.4,0.3-16.4,0.4l-32.5,0.6V389h216.5
		l31.3-46.5C8352.4,332.8,8338.3,334.7,8327.7,334.9z"/>
	<path style="fill:none;stroke:#C9D6DA;stroke-width:0.75;stroke-linecap:round;stroke-linejoin:round;" d="M8125.3,261
		c7.1,0,30-0.7,35.6-0.8c12.2-0.3,29.9-0.6,42.1-0.6s-11.2,7.6,7,7.6h29.8c8.8,0,4.3,14.6,24.1,14.6c31.1,0,4.5,11.7-7.5,11.7
		c-9.7,0-23,6.6,10.9,6.6c11.8,0,13.7,13.6,25.5,13.6c15.1,0,11.1,8.1,24.3,8.1c33,0,6.2,13.2,10.5,13.1c10.7-0.2,24.7-2.1,32.2,7.6
		"/>
	<g>
		<polygon style="fill:#C2DCD7;" points="8214.4,244.8 8218.8,259.5 8209.9,259.5 		"/>
		<polygon style="fill:#99C4BD;" points="8214.4,244.8 8218.8,259.5 8214.3,259.5 		"/>
		
			<line style="fill:none;stroke:#C2DCD7;stroke-width:0.5;stroke-linecap:round;stroke-linejoin:round;" x1="8214.1" y1="255.6" x2="8214.1" y2="265"/>
	</g>
	<g>
		<polygon style="fill:#C2DCD7;" points="8177.6,231.4 8182,246.1 8173.1,246.1 		"/>
		<polygon style="fill:#99C4BD;" points="8177.6,231.4 8182,246.1 8177.6,246.1 		"/>
		
			<line style="fill:none;stroke:#C2DCD7;stroke-width:0.5;stroke-linecap:round;stroke-linejoin:round;" x1="8177.3" y1="242.1" x2="8177.3" y2="251.5"/>
	</g>
	<g>
		<polygon style="fill:#C2DCD7;" points="8202.9,248.3 8205,255.1 8200.8,255.1 		"/>
		<polygon style="fill:#99C4BD;" points="8202.9,248.3 8205,255.1 8202.9,255.1 		"/>
		
			<line style="fill:none;stroke:#C2DCD7;stroke-width:0.5;stroke-linecap:round;stroke-linejoin:round;" x1="8202.8" y1="253.3" x2="8202.8" y2="257.6"/>
	</g>
	<g>
		<polygon style="fill:#C2DCD7;" points="8114.1,244.6 8116.2,251.5 8112,251.5 		"/>
		<polygon style="fill:#99C4BD;" points="8114.1,244.6 8116.2,251.5 8114.1,251.5 		"/>
		
			<line style="fill:none;stroke:#C2DCD7;stroke-width:0.5;stroke-linecap:round;stroke-linejoin:round;" x1="8113.9" y1="249.6" x2="8113.9" y2="254"/>
	</g>
	<g>
		<polygon style="fill:#C2DCD7;" points="8283.4,262.2 8287.8,277 8278.8,277 		"/>
		<polygon style="fill:#99C4BD;" points="8283.4,262.2 8287.8,277 8283.3,277 		"/>
		
			<line style="fill:none;stroke:#C2DCD7;stroke-width:0.5;stroke-linecap:round;stroke-linejoin:round;" x1="8283" y1="273" x2="8283" y2="282.4"/>
	</g>
	<g>
		<polygon style="fill:#C2DCD7;" points="8343.2,322.4 8347.6,337.2 8338.6,337.2 		"/>
		<polygon style="fill:#99C4BD;" points="8343.2,322.4 8347.6,337.2 8343.1,337.2 		"/>
		
			<line style="fill:none;stroke:#C2DCD7;stroke-width:0.5;stroke-linecap:round;stroke-linejoin:round;" x1="8342.8" y1="333.2" x2="8342.8" y2="342.6"/>
	</g>
	<g>
		<polygon style="fill:#C2DCD7;" points="8240.9,279.7 8244.1,290.4 8237.6,290.4 		"/>
		<polygon style="fill:#99C4BD;" points="8240.9,279.7 8244.1,290.4 8240.8,290.4 		"/>
		
			<line style="fill:none;stroke:#C2DCD7;stroke-width:0.5;stroke-linecap:round;stroke-linejoin:round;" x1="8240.6" y1="287.5" x2="8240.6" y2="294.4"/>
	</g>
	<g>
		<polygon style="fill:#C5DDD9;" points="8227.9,241.4 8232.3,256.2 8223.3,256.2 		"/>
		<polygon style="opacity:0.3;fill:#91AF92;enable-background:new    ;" points="8227.9,241.4 8232.3,256.2 8227.8,256.2 		"/>
		
			<line style="fill:none;stroke:#C5DDD9;stroke-width:0.5;stroke-linecap:round;stroke-linejoin:round;" x1="8227.5" y1="252.2" x2="8227.5" y2="261.6"/>
	</g>
	<g>
		<polygon style="fill:#C2DCD7;" points="8127.2,253.9 8131.6,268.7 8122.6,268.7 		"/>
		<polygon style="fill:#99C4BD;" points="8127.2,253.9 8131.6,268.7 8127.1,268.7 		"/>
		
			<line style="fill:none;stroke:#C2DCD7;stroke-width:0.5;stroke-linecap:round;stroke-linejoin:round;" x1="8126.8" y1="264.7" x2="8126.8" y2="274.1"/>
	</g>
	<g>
		<polygon style="fill:#C5DDD9;" points="8140.3,250 8144.7,264.7 8135.8,264.7 		"/>
		<polygon style="opacity:0.3;fill:#91AF92;enable-background:new    ;" points="8140.3,250 8144.7,264.7 8140.2,264.7 		"/>
		
			<line style="fill:none;stroke:#C5DDD9;stroke-width:0.5;stroke-linecap:round;stroke-linejoin:round;" x1="8140" y1="260.7" x2="8140" y2="270.1"/>
	</g>
	<g>
		<polygon style="fill:#C5DDD9;" points="8274.4,267.8 8277.3,277.6 8271.3,277.6 		"/>
		<polygon style="opacity:0.3;fill:#91AF92;enable-background:new    ;" points="8274.4,267.8 8277.3,277.6 8274.3,277.6 		"/>
		
			<line style="fill:none;stroke:#C5DDD9;stroke-width:0.5;stroke-linecap:round;stroke-linejoin:round;" x1="8274.1" y1="275" x2="8274.1" y2="281.2"/>
	</g>
	<g>
		<polygon style="fill:#C5DDD9;" points="8261.9,239 8264.9,248.7 8258.9,248.7 		"/>
		<polygon style="opacity:0.3;fill:#91AF92;enable-background:new    ;" points="8261.9,239 8264.9,248.7 8261.9,248.7 		"/>
		
			<line style="fill:none;stroke:#C5DDD9;stroke-width:0.5;stroke-linecap:round;stroke-linejoin:round;" x1="8261.7" y1="246.1" x2="8261.7" y2="252.3"/>
	</g>
	<g>
		<polygon style="fill:#C5DDD9;" points="8256,244.4 8258.9,254.2 8252.9,254.2 		"/>
		<polygon style="opacity:0.3;fill:#91AF92;enable-background:new    ;" points="8256,244.4 8258.9,254.2 8255.9,254.2 		"/>
		
			<line style="fill:none;stroke:#C5DDD9;stroke-width:0.5;stroke-linecap:round;stroke-linejoin:round;" x1="8255.7" y1="251.6" x2="8255.7" y2="257.8"/>
	</g>
	<g>
		<polygon style="fill:#C5DDD9;" points="8278.6,304.7 8281.5,314.5 8275.6,314.5 		"/>
		<polygon style="opacity:0.3;fill:#91AF92;enable-background:new    ;" points="8278.6,304.7 8281.5,314.5 8278.5,314.5 		"/>
		
			<line style="fill:none;stroke:#C5DDD9;stroke-width:0.5;stroke-linecap:round;stroke-linejoin:round;" x1="8278.3" y1="311.9" x2="8278.3" y2="318.1"/>
	</g>
	<g>
		<polygon style="fill:#C5DDD9;" points="8272.3,297.8 8275.2,307.6 8269.3,307.6 		"/>
		<polygon style="opacity:0.3;fill:#91AF92;enable-background:new    ;" points="8272.3,297.8 8275.2,307.6 8272.3,307.6 		"/>
		
			<line style="fill:none;stroke:#C5DDD9;stroke-width:0.5;stroke-linecap:round;stroke-linejoin:round;" x1="8272.1" y1="305" x2="8272.1" y2="311.2"/>
	</g>
	<g>
		<polygon style="fill:#C5DDD9;" points="8287.9,278.1 8289.7,284.3 8285.9,284.3 		"/>
		<polygon style="opacity:0.3;fill:#91AF92;enable-background:new    ;" points="8287.9,278.1 8289.7,284.3 8287.8,284.3 		"/>
		
			<line style="fill:none;stroke:#C5DDD9;stroke-width:0.5;stroke-linecap:round;stroke-linejoin:round;" x1="8287.7" y1="282.6" x2="8287.7" y2="286.6"/>
	</g>
	<g>
		<polygon style="fill:#C5DDD9;" points="8296.6,283.5 8298.4,289.7 8294.6,289.7 		"/>
		<polygon style="opacity:0.3;fill:#91AF92;enable-background:new    ;" points="8296.6,283.5 8298.4,289.7 8296.5,289.7 		"/>
		
			<line style="fill:none;stroke:#C5DDD9;stroke-width:0.5;stroke-linecap:round;stroke-linejoin:round;" x1="8296.4" y1="288" x2="8296.4" y2="292"/>
	</g>
	<g>
		<polygon style="fill:#C5DDD9;" points="8279.7,295.6 8281.5,301.8 8277.7,301.8 		"/>
		<polygon style="opacity:0.3;fill:#91AF92;enable-background:new    ;" points="8279.7,295.6 8281.5,301.8 8279.6,301.8 		"/>
		
			<line style="fill:none;stroke:#C5DDD9;stroke-width:0.5;stroke-linecap:round;stroke-linejoin:round;" x1="8279.5" y1="300.1" x2="8279.5" y2="304.1"/>
	</g>
	<g>
		<polygon style="fill:#C5DDD9;" points="8327.9,318.2 8329.7,324.4 8325.9,324.4 		"/>
		<polygon style="opacity:0.3;fill:#91AF92;enable-background:new    ;" points="8327.9,318.2 8329.7,324.4 8327.8,324.4 		"/>
		
			<line style="fill:none;stroke:#C5DDD9;stroke-width:0.5;stroke-linecap:round;stroke-linejoin:round;" x1="8327.7" y1="322.7" x2="8327.7" y2="326.7"/>
	</g>
	<g>
		<polygon style="fill:#C5DDD9;" points="8237.6,293.6 8239.5,299.9 8235.7,299.9 		"/>
		<polygon style="opacity:0.3;fill:#91AF92;enable-background:new    ;" points="8237.6,293.6 8239.5,299.9 8237.6,299.9 		"/>
		
			<line style="fill:none;stroke:#C5DDD9;stroke-width:0.5;stroke-linecap:round;stroke-linejoin:round;" x1="8237.4" y1="298.2" x2="8237.4" y2="302.1"/>
	</g>
	<g>
		<polygon style="fill:#C5DDD9;" points="8250.8,272.3 8255.2,287 8246.2,287 		"/>
		<polygon style="opacity:0.3;fill:#91AF92;enable-background:new    ;" points="8250.8,272.3 8255.2,287 8250.7,287 		"/>
		
			<line style="fill:none;stroke:#C5DDD9;stroke-width:0.5;stroke-linecap:round;stroke-linejoin:round;" x1="8250.4" y1="283" x2="8250.4" y2="292.4"/>
	</g>
</g>
</svg>
